<?xml version="1.0" encoding="UTF-8"?>
<svg xmlns="http://www.w3.org/2000/svg" xmlns:xlink="http://www.w3.org/1999/xlink" width="854" height="480" viewBox="0 0 854 480">
<defs>
<g>
<g id="glyph-0-0">
<path d="M 1.457031 -1.515625 C 1.457031 -1.453125 1.441406 -1.402344 1.414062 -1.355469 C 1.382812 -1.308594 1.339844 -1.285156 1.277344 -1.285156 C 1.210938 -1.285156 1.164062 -1.300781 1.128906 -1.335938 C 1.09375 -1.371094 1.074219 -1.40625 1.074219 -1.449219 C 1.074219 -1.476562 1.078125 -1.5 1.082031 -1.519531 C 1.085938 -1.539062 1.089844 -1.5625 1.09375 -1.582031 C 1.039062 -1.582031 0.972656 -1.5625 0.898438 -1.515625 C 0.824219 -1.472656 0.761719 -1.40625 0.710938 -1.324219 L 0.710938 -0.3125 C 0.710938 -0.273438 0.71875 -0.238281 0.734375 -0.214844 C 0.75 -0.1875 0.773438 -0.167969 0.808594 -0.15625 C 0.839844 -0.144531 0.875 -0.132812 0.921875 -0.128906 C 0.96875 -0.121094 1.007812 -0.117188 1.042969 -0.117188 L 1.042969 0 L 0.125 0 L 0.125 -0.117188 C 0.152344 -0.117188 0.183594 -0.121094 0.210938 -0.125 C 0.238281 -0.125 0.265625 -0.128906 0.285156 -0.136719 C 0.320312 -0.148438 0.34375 -0.167969 0.359375 -0.191406 C 0.375 -0.21875 0.382812 -0.253906 0.382812 -0.296875 L 0.382812 -1.367188 C 0.382812 -1.40625 0.375 -1.441406 0.355469 -1.476562 C 0.339844 -1.511719 0.316406 -1.539062 0.285156 -1.558594 C 0.261719 -1.574219 0.238281 -1.585938 0.207031 -1.589844 C 0.175781 -1.597656 0.144531 -1.601562 0.109375 -1.605469 L 0.109375 -1.722656 L 0.6875 -1.757812 L 0.710938 -1.734375 L 0.710938 -1.488281 L 0.71875 -1.488281 C 0.792969 -1.585938 0.875 -1.65625 0.960938 -1.707031 C 1.050781 -1.757812 1.132812 -1.78125 1.207031 -1.78125 C 1.28125 -1.78125 1.34375 -1.757812 1.386719 -1.707031 C 1.433594 -1.660156 1.457031 -1.59375 1.457031 -1.515625 Z "/>
</g>
<g id="glyph-0-1">
<path d="M 1.953125 -0.351562 L 1.796875 -0.195312 L 1.160156 -0.835938 L 0.523438 -0.191406 L 0.367188 -0.351562 L 1.007812 -0.988281 L 0.367188 -1.625 L 0.523438 -1.78125 L 1.160156 -1.140625 L 1.800781 -1.78125 L 1.953125 -1.625 L 1.3125 -0.988281 Z "/>
</g>
<g id="glyph-0-2">
<path d="M 2.03125 -0.03125 L 1.421875 0.0078125 L 1.394531 -0.0195312 L 1.394531 -0.179688 L 1.382812 -0.183594 C 1.320312 -0.113281 1.246094 -0.0585938 1.15625 -0.015625 C 1.066406 0.0273438 0.972656 0.0507812 0.878906 0.0507812 C 0.78125 0.0507812 0.683594 0.0273438 0.59375 -0.015625 C 0.5 -0.0625 0.421875 -0.121094 0.351562 -0.203125 C 0.28125 -0.285156 0.226562 -0.382812 0.1875 -0.496094 C 0.148438 -0.609375 0.125 -0.734375 0.125 -0.871094 C 0.125 -1 0.148438 -1.117188 0.191406 -1.230469 C 0.234375 -1.34375 0.296875 -1.441406 0.371094 -1.527344 C 0.441406 -1.605469 0.53125 -1.667969 0.636719 -1.714844 C 0.738281 -1.761719 0.84375 -1.785156 0.953125 -1.785156 C 1.035156 -1.785156 1.113281 -1.777344 1.191406 -1.753906 C 1.269531 -1.734375 1.335938 -1.707031 1.394531 -1.675781 L 1.394531 -2.28125 C 1.394531 -2.332031 1.382812 -2.378906 1.367188 -2.417969 C 1.351562 -2.457031 1.328125 -2.488281 1.300781 -2.511719 C 1.265625 -2.53125 1.222656 -2.550781 1.167969 -2.558594 C 1.109375 -2.570312 1.050781 -2.578125 0.984375 -2.582031 L 0.984375 -2.691406 L 1.699219 -2.730469 L 1.722656 -2.703125 L 1.722656 -0.359375 C 1.722656 -0.320312 1.730469 -0.285156 1.746094 -0.253906 C 1.765625 -0.226562 1.789062 -0.203125 1.816406 -0.179688 C 1.839844 -0.167969 1.871094 -0.160156 1.914062 -0.15625 C 1.957031 -0.152344 1.996094 -0.148438 2.03125 -0.148438 L 2.03125 -0.03125 M 1.394531 -0.335938 L 1.394531 -1.355469 C 1.382812 -1.382812 1.367188 -1.417969 1.347656 -1.453125 C 1.324219 -1.488281 1.300781 -1.519531 1.269531 -1.550781 C 1.234375 -1.578125 1.195312 -1.601562 1.148438 -1.621094 C 1.101562 -1.640625 1.050781 -1.652344 0.988281 -1.652344 C 0.917969 -1.652344 0.851562 -1.632812 0.792969 -1.597656 C 0.734375 -1.5625 0.683594 -1.507812 0.636719 -1.441406 C 0.59375 -1.375 0.558594 -1.289062 0.535156 -1.1875 C 0.507812 -1.085938 0.496094 -0.976562 0.496094 -0.851562 C 0.496094 -0.753906 0.503906 -0.664062 0.523438 -0.582031 C 0.542969 -0.503906 0.574219 -0.425781 0.617188 -0.359375 C 0.660156 -0.292969 0.710938 -0.238281 0.777344 -0.199219 C 0.839844 -0.160156 0.914062 -0.140625 1.003906 -0.140625 C 1.097656 -0.140625 1.175781 -0.160156 1.238281 -0.199219 C 1.296875 -0.242188 1.351562 -0.289062 1.394531 -0.335938 Z "/>
</g>
</g>
</defs>
<g fill="rgb(86.666667%, 86.666667%, 86.666667%)" fill-opacity="1">
<use xlink:href="#glyph-0-0" x="30" y="23.310547"/>
<use xlink:href="#glyph-0-1" x="31" y="23.310547"/>
<use xlink:href="#glyph-0-2" x="33" y="23.310547"/>
</g>
</svg>
